<svg xmlns="http://www.w3.org/2000/svg" xmlns:xlink="http://www.w3.org/1999/xlink" width="250" zoomAndPan="magnify" viewBox="0 0 187.5 74.999997" height="100" preserveAspectRatio="xMidYMid meet" version="1.0"><path fill="#5b1429" d="M 131.808594 28.753906 C 133.542969 27.621094 135.597656 27.050781 137.96875 27.050781 C 140.253906 27.050781 141.507812 27.664062 143.308594 28.890625 C 145.105469 30.117188 146.113281 31.683594 146.324219 33.59375 L 146.324219 34.027344 L 128.378906 34.027344 C 128.925781 31.648438 130.070312 29.890625 131.808594 28.753906 M 160.511719 31.234375 L 152.09375 40.585938 C 152.09375 40.585938 150.039062 42.585938 147.882812 44.1875 C 145.722656 45.792969 144.1875 46.25 144.1875 46.25 L 143.484375 46.484375 C 141.269531 46.941406 141.207031 47.054688 139.175781 47.054688 C 136.210938 47.054688 133.703125 46.265625 131.648438 44.675781 C 129.59375 43.09375 128.417969 40.984375 128.125 38.351562 L 149.691406 38.351562 C 150.496094 38.351562 151.191406 38.128906 151.785156 37.675781 C 152.378906 37.226562 152.695312 36.675781 152.738281 36.027344 C 152.695312 33.433594 151.953125 31.089844 150.515625 29 C 149.074219 26.910156 147.171875 25.269531 144.800781 24.078125 C 142.429688 22.890625 140.675781 22.292969 137.96875 22.292969 C 135.214844 22.292969 132.640625 22.90625 130.25 24.132812 C 127.859375 25.359375 125.933594 27.117188 124.472656 29.402344 L 123.992188 30.40625 L 114.789062 43.457031 C 114.6875 43.457031 114.277344 44.457031 113.582031 44.628906 C 113.074219 44.753906 112.667969 45.015625 112.375 45.015625 C 110.46875 45.015625 109.515625 44.113281 109.515625 42.3125 L 109.515625 27.972656 L 114.789062 27.972656 C 115.589844 27.972656 116.257812 27.753906 116.789062 27.324219 C 117.316406 26.890625 117.582031 26.332031 117.582031 25.648438 C 117.582031 24.960938 117.316406 24.394531 116.789062 23.945312 C 116.257812 23.492188 115.589844 23.269531 114.789062 23.269531 L 109.515625 23.269531 L 109.515625 18.726562 C 109.515625 18.003906 109.230469 17.394531 108.660156 16.886719 C 108.085938 16.382812 107.378906 16.132812 106.53125 16.132812 C 105.640625 16.132812 104.910156 16.382812 104.339844 16.886719 C 103.769531 17.394531 103.484375 18.003906 103.484375 18.726562 L 103.484375 23.269531 L 99.800781 23.269531 C 98.996094 23.269531 98.328125 23.484375 97.800781 23.917969 C 97.269531 24.347656 97.003906 24.90625 97.003906 25.59375 C 97.003906 26.277344 97.269531 26.84375 97.800781 27.296875 C 98.328125 27.746094 98.996094 27.972656 99.800781 27.972656 L 103.484375 27.972656 L 103.484375 44.300781 C 103.484375 46.390625 103.9375 48.144531 104.847656 49.171875 C 105.757812 50.199219 106.796875 50.839844 107.960938 51.09375 C 109.550781 51.4375 110.296875 51.46875 111.800781 51.46875 C 111.800781 51.46875 114.195312 50.828125 115.425781 49.949219 C 116.660156 49.074219 117.097656 48.523438 117.097656 48.523438 L 122.566406 40.886719 L 122.8125 41.328125 C 123.167969 42.570312 123.699219 43.742188 124.410156 44.839844 C 125.828125 47.039062 127.839844 48.75 130.441406 49.976562 C 133.046875 51.203125 136.066406 51.984375 139.492188 51.8125 C 143.078125 51.636719 141.964844 51.710938 144.847656 51.203125 L 146.46875 50.628906 C 146.46875 50.628906 149.445312 49.066406 153.011719 45.9375 C 156.578125 42.8125 158.894531 39.625 158.894531 39.625 L 160.511719 37.808594 L 160.511719 48.679688 C 160.511719 49.433594 160.785156 50.058594 161.335938 50.542969 C 161.886719 51.03125 162.609375 51.273438 163.496094 51.273438 C 164.386719 51.273438 165.117188 51.023438 165.6875 50.515625 C 166.257812 50.011719 166.546875 49.398438 166.546875 48.679688 L 166.546875 35.648438 C 166.546875 33.992188 166.9375 30.125 167.71875 28.773438 C 168.503906 27.421875 169.519531 26.359375 170.769531 25.582031 C 172.015625 24.808594 173.296875 24.421875 174.609375 24.421875 C 175.117188 24.421875 175.816406 24.546875 176.707031 24.800781 C 177.46875 25.015625 178.039062 25.125 178.421875 25.125 C 179.183594 25.125 179.828125 24.898438 180.359375 24.449219 C 180.886719 23.996094 181.152344 23.339844 181.152344 22.472656 C 181.152344 21.753906 180.75 21.148438 179.945312 20.664062 C 179.140625 20.175781 178.1875 19.933594 177.085938 19.933594 C 174.714844 19.96875 172.597656 20.539062 170.738281 21.636719 C 168.871094 22.734375 167.234375 24.253906 165.992188 25.558594 Z M 92.792969 23.507812 C 93.59375 23.996094 93.996094 24.597656 93.996094 25.320312 C 93.996094 26.183594 93.734375 26.84375 93.203125 27.292969 C 92.675781 27.742188 92.027344 27.96875 91.265625 27.96875 C 90.886719 27.96875 90.316406 27.859375 89.550781 27.644531 C 88.664062 27.390625 87.964844 27.265625 87.457031 27.265625 C 86.144531 27.265625 84.863281 27.652344 83.613281 28.429688 C 82.363281 29.203125 81.347656 30.265625 80.566406 31.617188 C 79.78125 32.96875 79.390625 34.476562 79.390625 36.132812 L 79.390625 49.164062 C 79.390625 49.882812 79.105469 50.496094 78.535156 51 C 77.960938 51.503906 77.230469 51.757812 76.34375 51.757812 C 75.453125 51.757812 74.734375 51.515625 74.183594 51.027344 C 73.632812 50.539062 73.359375 49.917969 73.359375 49.164062 L 73.359375 26.023438 C 73.359375 25.300781 73.644531 24.6875 74.214844 24.183594 C 74.785156 23.679688 75.496094 23.425781 76.34375 23.425781 C 77.230469 23.425781 77.960938 23.679688 78.535156 24.183594 C 79.105469 24.6875 79.390625 25.300781 79.390625 26.023438 L 79.390625 28.78125 C 80.320312 27.015625 81.71875 25.582031 83.582031 24.480469 C 85.445312 23.382812 87.5625 22.816406 89.933594 22.777344 C 91.035156 22.777344 91.988281 23.023438 92.792969 23.507812 M 35.867188 40.894531 C 35.570312 39.722656 35.53125 38.492188 35.53125 37.199219 C 35.53125 34.386719 36.226562 31.847656 37.625 29.574219 C 39.023438 27.304688 40.929688 25.539062 43.347656 24.277344 C 45.761719 23.015625 48.429688 22.382812 51.34375 22.382812 C 54.261719 22.382812 56.925781 23.015625 59.34375 24.277344 C 61.757812 25.539062 63.664062 27.304688 65.0625 29.574219 C 66.460938 31.847656 67.160156 34.386719 67.160156 37.199219 C 67.160156 40.011719 66.460938 42.535156 65.0625 44.769531 C 63.664062 47.003906 61.757812 48.75 59.34375 50.011719 C 56.925781 51.273438 54.261719 51.707031 51.34375 51.707031 L 48.75 51.757812 L 9.710938 51.757812 C 8.949219 51.757812 8.320312 51.503906 7.824219 51 C 7.324219 50.496094 7.074219 49.972656 7.074219 49.433594 C 7.113281 48.964844 7.195312 48.578125 7.3125 48.269531 C 7.433594 47.964844 7.652344 47.613281 7.972656 47.214844 L 23.667969 28.292969 L 10.667969 28.292969 C 9.910156 28.292969 9.269531 28.058594 8.75 27.589844 C 8.230469 27.121094 7.972656 26.546875 7.972656 25.859375 C 7.972656 25.175781 8.222656 24.617188 8.722656 24.183594 C 9.21875 23.75 9.867188 23.535156 10.667969 23.535156 L 29.058594 23.535156 C 29.816406 23.535156 30.445312 23.789062 30.945312 24.292969 C 31.445312 24.796875 31.675781 25.410156 31.636719 26.128906 C 31.597656 26.492188 31.527344 26.804688 31.425781 27.078125 C 31.324219 27.347656 31.117188 27.644531 30.796875 27.96875 L 14.980469 47 L 48.75 47 L 51.34375 46.949219 C 53.222656 46.949219 54.929688 46.722656 56.46875 45.875 C 58.003906 45.03125 59.222656 43.847656 60.121094 42.335938 C 61.019531 40.820312 61.46875 39.109375 61.46875 37.199219 C 61.46875 35.253906 61.019531 33.511719 60.121094 31.980469 C 59.222656 30.449219 58.003906 29.261719 56.46875 28.414062 C 54.929688 27.566406 53.222656 27.140625 51.34375 27.140625 C 49.46875 27.140625 47.761719 27.566406 46.222656 28.414062 C 44.683594 29.261719 43.46875 30.449219 42.570312 31.980469 C 41.671875 33.511719 41.222656 35.253906 41.222656 37.199219 C 41.222656 38.351562 41.304688 39.21875 41.570312 40.054688 L 41.605469 40.140625 C 41.605469 40.140625 43.050781 43.367188 40.300781 43.988281 C 37.179688 44.691406 36.4375 42.007812 36.4375 42.007812 Z M 35.867188 40.894531 " fill-opacity="1" fill-rule="nonzero"/><path stroke-linecap="butt" transform="matrix(0.196934, 0, 0, -0.196783, 131.807151, 28.75539)" fill="none" stroke-linejoin="miter" d="M 0.00732525 0.00754236 C 8.814197 5.7642 19.247563 8.662379 31.287589 8.662379 C 42.891237 8.662379 49.258368 5.545844 58.402439 -0.687227 C 67.526676 -6.920297 72.644183 -14.880365 73.715289 -24.587281 L 73.715289 -26.790691 L -17.408065 -26.790691 C -14.631124 -14.70171 -8.819382 -5.768966 0.00732525 0.00754236 Z M 145.757087 -12.597553 L 103.012022 -60.119754 C 103.012022 -60.119754 92.578656 -70.283232 81.629572 -78.421955 C 70.660653 -86.580529 62.865381 -88.903042 62.865381 -88.903042 L 59.295028 -90.094075 C 48.048414 -92.416589 47.73105 -92.992254 37.416695 -92.992254 C 22.361705 -92.992254 9.627444 -88.982445 -0.805922 -80.903273 C -11.239288 -72.863803 -17.209712 -62.14451 -18.69736 -48.765243 L 90.813315 -48.765243 C 94.899386 -48.765243 98.430069 -47.633762 101.445034 -45.331099 C 104.459999 -43.048287 106.066658 -40.24936 106.284846 -36.95417 C 106.066658 -23.773409 102.297952 -11.863083 94.998562 -1.243042 C 87.679338 9.376999 78.019548 17.714227 65.979523 23.768643 C 53.939498 29.803208 45.033449 32.840341 31.287589 32.840341 C 17.303704 32.840341 4.232243 29.723806 -7.906958 23.490735 C -20.04616 17.257665 -29.824961 8.32492 -37.243362 -3.287648 L -39.683104 -8.389238 L -86.415063 -74.709904 C -86.930781 -74.709904 -89.013487 -79.791643 -92.54417 -80.665067 C -95.122759 -81.300284 -97.18563 -82.630271 -98.673277 -82.630271 C -108.352902 -82.630271 -113.192714 -78.044795 -113.192714 -68.893694 L -113.192714 3.977651 L -86.415063 3.977651 C -82.348828 3.977651 -78.956992 5.089282 -76.259391 7.272841 C -73.581626 9.476252 -72.232826 12.314879 -72.232826 15.788725 C -72.232826 19.28242 -73.581626 22.160749 -76.259391 24.443562 C -78.956992 26.746225 -82.348828 27.877706 -86.415063 27.877706 L -113.192714 27.877706 L -113.192714 50.963888 C -113.192714 54.636238 -114.640691 57.732923 -117.536644 60.313494 C -120.452433 62.874214 -124.042622 64.144649 -128.346881 64.144649 C -132.869329 64.144649 -136.578529 62.874214 -139.474483 60.313494 C -142.370436 57.732923 -143.818413 54.636238 -143.818413 50.963888 L -143.818413 27.877706 L -162.523098 27.877706 C -166.609169 27.877706 -170.001005 26.785926 -172.67877 24.582515 C -175.37637 22.398956 -176.72517 19.560328 -176.72517 16.066632 C -176.72517 12.592787 -175.37637 9.714458 -172.67877 7.411795 C -170.001005 5.128983 -166.609169 3.977651 -162.523098 3.977651 L -143.818413 3.977651 L -143.818413 -78.997621 C -143.818413 -89.617662 -141.517518 -98.530556 -136.895894 -103.751249 C -132.27427 -108.971942 -126.998081 -112.227431 -121.087162 -113.517716 C -113.014197 -115.264564 -109.225655 -115.423369 -101.589066 -115.423369 C -101.589066 -115.423369 -89.430029 -112.167879 -83.18191 -107.701507 C -76.913956 -103.254985 -74.692403 -100.456059 -74.692403 -100.456059 L -46.922987 -61.648246 L -45.673364 -63.891357 C -43.868352 -70.20383 -41.170751 -76.158993 -37.560727 -81.736996 C -30.360514 -92.912852 -20.145336 -101.60739 -6.935029 -107.840461 C 6.295114 -114.073532 21.627799 -118.04364 39.023354 -117.170216 C 57.232157 -116.276942 51.579097 -116.654102 66.217546 -114.073532 L 74.449195 -111.155502 C 74.449195 -111.155502 89.563691 -103.215284 107.673317 -87.314999 C 125.782943 -71.434564 137.545274 -55.23652 137.545274 -55.23652 L 145.757087 -46.006018 L 145.757087 -101.25008 C 145.757087 -105.081235 147.145558 -108.257322 149.942335 -110.71879 C 152.739112 -113.200108 156.408642 -114.430841 160.911254 -114.430841 C 165.433702 -114.430841 169.142902 -113.160407 172.038856 -110.579836 C 174.934809 -108.019116 176.402621 -104.902581 176.402621 -101.25008 L 176.402621 -35.028667 C 176.402621 -26.612037 178.386151 -6.959998 182.35321 -0.0917104 C 186.340105 6.776578 191.497282 12.175926 197.844577 16.126184 C 204.172037 20.056591 210.678014 22.021795 217.342674 22.021795 C 219.921262 22.021795 223.47178 21.386578 227.994228 20.096292 C 231.862111 19.004513 234.758064 18.448697 236.701923 18.448697 C 240.569806 18.448697 243.84263 19.600029 246.540231 21.882841 C 249.217996 24.185504 250.566796 27.520396 250.566796 31.927216 C 250.566796 35.579716 248.52376 38.656551 244.437689 41.118018 C 240.351618 43.599336 235.511806 44.83007 229.918252 44.83007 C 217.878227 44.651415 207.127496 41.753236 197.685894 36.175233 C 188.204623 30.59723 179.893633 22.875369 173.586009 16.245287 Z M -198.10762 26.666822 C -194.041385 24.185504 -191.998349 21.128521 -191.998349 17.45617 C -191.998349 13.0692 -193.327314 9.714458 -196.024914 7.431646 C -198.702679 5.148833 -201.995339 3.997502 -205.863222 3.997502 C -207.787245 3.997502 -210.683199 4.553317 -214.570917 5.645097 C -219.073529 6.935382 -222.624047 7.570599 -225.202636 7.570599 C -231.867296 7.570599 -238.373273 5.605396 -244.720568 1.655137 C -251.067863 -2.27527 -256.22504 -7.674618 -260.1921 -14.542906 C -264.178995 -21.411194 -266.162524 -29.073504 -266.162524 -37.490134 L -266.162524 -103.711548 C -266.162524 -107.364048 -267.610501 -110.480583 -270.506454 -113.041303 C -273.422243 -115.602023 -277.131443 -116.892309 -281.634056 -116.892309 C -286.156504 -116.892309 -289.806198 -115.661575 -292.602975 -113.180257 C -295.399752 -110.698939 -296.788223 -107.542703 -296.788223 -103.711548 L -296.788223 13.883072 C -296.788223 17.555423 -295.340246 20.671958 -292.444293 23.232678 C -289.548339 25.793398 -285.938315 27.083684 -281.634056 27.083684 C -277.131443 27.083684 -273.422243 25.793398 -270.506454 23.232678 C -267.610501 20.671958 -266.162524 17.555423 -266.162524 13.883072 L -266.162524 -0.131411 C -261.441724 8.841034 -254.340687 16.126184 -244.879251 21.724037 C -235.417814 27.30204 -224.667083 30.180369 -212.627058 30.378874 C -207.033504 30.378874 -202.193692 29.12829 -198.10762 26.666822 Z M -487.167403 -61.687947 C -488.674885 -55.732784 -488.873238 -49.479863 -488.873238 -42.909333 C -488.873238 -28.616941 -485.342555 -15.714088 -478.241519 -4.161072 C -471.140483 7.372094 -461.460858 16.34454 -449.182809 22.756265 C -436.924595 29.167991 -423.377088 32.383779 -408.579956 32.383779 C -393.762989 32.383779 -380.235317 29.167991 -367.957268 22.756265 C -355.699055 16.34454 -346.01943 7.372094 -338.918393 -4.161072 C -331.817357 -15.714088 -328.266839 -28.616941 -328.266839 -42.909333 C -328.266839 -57.201724 -331.817357 -70.025175 -338.918393 -81.379686 C -346.01943 -92.734197 -355.699055 -101.60739 -367.957268 -108.019116 C -380.235317 -114.430841 -393.762989 -116.634252 -408.579956 -116.634252 L -421.750593 -116.892309 L -619.984551 -116.892309 C -623.852434 -116.892309 -627.045917 -115.602023 -629.564999 -113.041303 C -632.103917 -110.480583 -633.373376 -107.82061 -633.373376 -105.081235 C -633.175023 -102.69917 -632.758482 -100.733966 -632.163423 -99.165773 C -631.548529 -97.617431 -630.437752 -95.830882 -628.811258 -93.806127 L -549.113035 2.349906 L -615.124903 2.349906 C -618.972951 2.349906 -622.225939 3.540939 -624.864034 5.923004 C -627.502128 8.30507 -628.811258 11.223099 -628.811258 14.716795 C -628.811258 18.19064 -627.541799 21.029268 -625.002881 23.232678 C -622.483798 25.436089 -619.191139 26.527869 -615.124903 26.527869 L -521.740325 26.527869 C -517.892278 26.527869 -514.698795 25.237583 -512.159877 22.676863 C -509.620959 20.116143 -508.450676 16.999608 -508.649029 13.347108 C -508.847382 11.501007 -509.204417 9.912964 -509.720135 8.523426 C -510.235853 7.153738 -511.287124 5.645097 -512.913618 3.997502 L -593.226735 -92.714347 L -421.750593 -92.714347 L -408.579956 -92.45629 C -399.039178 -92.45629 -390.371154 -91.304958 -382.556047 -86.99739 C -374.760775 -82.709673 -368.572162 -76.694958 -364.010044 -69.012798 C -359.447926 -61.310787 -357.166867 -52.616249 -357.166867 -42.909333 C -357.166867 -33.023762 -359.447926 -24.17042 -364.010044 -16.389007 C -368.572162 -8.607594 -374.760775 -2.573028 -382.556047 1.73454 C -390.371154 6.042108 -399.039178 8.205817 -408.579956 8.205817 C -418.100899 8.205817 -426.768923 6.042108 -434.58403 1.73454 C -442.399137 -2.573028 -448.567915 -8.607594 -453.130033 -16.389007 C -457.692151 -24.17042 -459.973211 -33.023762 -459.973211 -42.909333 C -459.973211 -48.765243 -459.556669 -53.172064 -458.207869 -57.42008 L -458.029351 -57.856792 C -458.029351 -57.856792 -450.690292 -74.253341 -464.654341 -77.409578 C -480.502743 -80.982675 -484.271449 -67.345352 -484.271449 -67.345352 Z M -487.167403 -61.687947 " stroke="#6b1a1a" stroke-width="1.701" stroke-opacity="1" stroke-miterlimit="10"/><path fill="#5b1429" d="M 29.886719 67.214844 C 30.136719 67.25 30.5 67.261719 30.953125 67.261719 C 32.261719 67.261719 33.472656 66.863281 33.472656 65.671875 C 33.472656 64.550781 32.320312 64.089844 30.9375 64.089844 L 29.886719 64.089844 Z M 29.886719 63.289062 L 31.039062 63.289062 C 32.378906 63.289062 33.164062 62.703125 33.164062 61.914062 C 33.164062 60.953125 32.292969 60.574219 31.007812 60.574219 C 30.425781 60.574219 30.089844 60.613281 29.886719 60.648438 Z M 28.621094 59.933594 C 29.175781 59.835938 30.046875 59.761719 30.9375 59.761719 C 32.203125 59.761719 33.019531 59.945312 33.632812 60.355469 C 34.140625 60.671875 34.449219 61.160156 34.449219 61.804688 C 34.449219 62.59375 33.820312 63.289062 32.785156 63.601562 L 32.785156 63.628906 C 33.71875 63.824219 34.8125 64.464844 34.8125 65.683594 C 34.8125 66.386719 34.476562 66.921875 33.980469 67.324219 C 33.296875 67.847656 32.191406 68.089844 30.585938 68.089844 C 29.714844 68.089844 29.042969 68.042969 28.621094 67.992188 Z M 28.621094 59.933594 " fill-opacity="1" fill-rule="nonzero"/><path fill="#5b1429" d="M 37.785156 59.824219 L 37.785156 64.671875 C 37.785156 66.507812 38.761719 67.289062 40.070312 67.289062 C 41.527344 67.289062 42.460938 66.484375 42.460938 64.671875 L 42.460938 59.824219 L 43.742188 59.824219 L 43.742188 64.601562 C 43.742188 67.117188 42.152344 68.152344 40.027344 68.152344 C 38.015625 68.152344 36.5 67.191406 36.5 64.648438 L 36.5 59.824219 Z M 37.785156 59.824219 " fill-opacity="1" fill-rule="nonzero"/><path fill="#5b1429" d="M 45.765625 66.726562 C 46.335938 67.019531 47.167969 67.261719 48.039062 67.261719 C 49.335938 67.261719 50.09375 66.691406 50.09375 65.863281 C 50.09375 65.097656 49.570312 64.660156 48.242188 64.234375 C 46.640625 63.761719 45.652344 63.070312 45.652344 61.914062 C 45.652344 60.636719 46.917969 59.6875 48.828125 59.6875 C 49.832031 59.6875 50.558594 59.882812 50.996094 60.089844 L 50.648438 60.953125 C 50.328125 60.808594 49.671875 60.5625 48.78125 60.5625 C 47.441406 60.5625 46.933594 61.234375 46.933594 61.792969 C 46.933594 62.558594 47.53125 62.933594 48.886719 63.371094 C 50.546875 63.90625 51.390625 64.574219 51.390625 65.78125 C 51.390625 67.042969 50.269531 68.152344 47.953125 68.152344 C 47.003906 68.152344 45.972656 67.90625 45.445312 67.617188 Z M 45.765625 66.726562 " fill-opacity="1" fill-rule="nonzero"/><path fill="#5b1429" d="M 54.390625 68.015625 L 53.125 68.015625 L 53.125 59.824219 L 54.390625 59.824219 Z M 54.390625 68.015625 " fill-opacity="1" fill-rule="nonzero"/><path fill="#5b1429" d="M 56.605469 68.015625 L 56.605469 59.820312 L 57.992188 59.820312 L 61.136719 63.96875 C 61.867188 64.929688 62.433594 65.792969 62.898438 66.632812 L 62.929688 66.617188 C 62.8125 65.523438 62.785156 64.527344 62.785156 63.25 L 62.785156 59.820312 L 63.976562 59.820312 L 63.976562 68.015625 L 62.695312 68.015625 L 59.578125 63.859375 C 58.894531 62.945312 58.238281 62.011719 57.742188 61.125 L 57.699219 61.136719 C 57.773438 62.167969 57.800781 63.152344 57.800781 64.515625 L 57.800781 68.015625 Z M 56.605469 68.015625 " fill-opacity="1" fill-rule="nonzero"/><path fill="#5b1429" d="M 71.277344 64.175781 L 67.460938 64.175781 L 67.460938 67.128906 L 71.714844 67.128906 L 71.714844 68.015625 L 66.191406 68.015625 L 66.191406 59.824219 L 71.496094 59.824219 L 71.496094 60.710938 L 67.460938 60.710938 L 67.460938 63.300781 L 71.277344 63.300781 Z M 71.277344 64.175781 " fill-opacity="1" fill-rule="nonzero"/><path fill="#5b1429" d="M 73.183594 66.726562 C 73.753906 67.019531 74.582031 67.261719 75.457031 67.261719 C 76.753906 67.261719 77.511719 66.691406 77.511719 65.863281 C 77.511719 65.097656 76.988281 64.660156 75.660156 64.234375 C 74.058594 63.761719 73.070312 63.070312 73.070312 61.914062 C 73.070312 60.636719 74.335938 59.6875 76.246094 59.6875 C 77.25 59.6875 77.976562 59.882812 78.414062 60.089844 L 78.066406 60.953125 C 77.746094 60.808594 77.089844 60.5625 76.199219 60.5625 C 74.859375 60.5625 74.351562 61.234375 74.351562 61.792969 C 74.351562 62.558594 74.949219 62.933594 76.304688 63.371094 C 77.964844 63.90625 78.808594 64.574219 78.808594 65.78125 C 78.808594 67.042969 77.6875 68.152344 75.371094 68.152344 C 74.421875 68.152344 73.390625 67.90625 72.863281 67.617188 Z M 73.183594 66.726562 " fill-opacity="1" fill-rule="nonzero"/><path fill="#5b1429" d="M 80.367188 66.726562 C 80.9375 67.019531 81.765625 67.261719 82.640625 67.261719 C 83.9375 67.261719 84.695312 66.691406 84.695312 65.863281 C 84.695312 65.097656 84.167969 64.660156 82.84375 64.234375 C 81.242188 63.761719 80.25 63.070312 80.25 61.914062 C 80.25 60.636719 81.519531 59.6875 83.425781 59.6875 C 84.433594 59.6875 85.160156 59.882812 85.597656 60.089844 L 85.246094 60.953125 C 84.925781 60.808594 84.273438 60.5625 83.382812 60.5625 C 82.042969 60.5625 81.53125 61.234375 81.53125 61.792969 C 81.53125 62.558594 82.128906 62.933594 83.484375 63.371094 C 85.144531 63.90625 85.992188 64.574219 85.992188 65.78125 C 85.992188 67.042969 84.867188 68.152344 82.550781 68.152344 C 81.605469 68.152344 80.570312 67.90625 80.046875 67.617188 Z M 80.367188 66.726562 " fill-opacity="1" fill-rule="nonzero"/><path fill="#5b1429" d="M 90.636719 66.726562 C 91.207031 67.019531 92.035156 67.261719 92.910156 67.261719 C 94.207031 67.261719 94.964844 66.691406 94.964844 65.863281 C 94.964844 65.097656 94.441406 64.660156 93.113281 64.234375 C 91.511719 63.761719 90.523438 63.070312 90.523438 61.914062 C 90.523438 60.636719 91.789062 59.6875 93.699219 59.6875 C 94.703125 59.6875 95.429688 59.882812 95.867188 60.089844 L 95.519531 60.953125 C 95.199219 60.808594 94.542969 60.5625 93.652344 60.5625 C 92.3125 60.5625 91.804688 61.234375 91.804688 61.792969 C 91.804688 62.558594 92.402344 62.933594 93.757812 63.371094 C 95.417969 63.90625 96.261719 64.574219 96.261719 65.78125 C 96.261719 67.042969 95.140625 68.152344 92.824219 68.152344 C 91.875 68.152344 90.84375 67.90625 90.316406 67.617188 Z M 90.636719 66.726562 " fill-opacity="1" fill-rule="nonzero"/><path fill="#5b1429" d="M 98.765625 63.96875 C 98.765625 65.71875 99.902344 67.289062 101.898438 67.289062 C 103.910156 67.289062 105.046875 65.742188 105.046875 63.882812 C 105.046875 62.253906 104.027344 60.550781 101.914062 60.550781 C 99.816406 60.550781 98.765625 62.167969 98.765625 63.96875 M 106.386719 63.835938 C 106.386719 66.65625 104.332031 68.152344 101.828125 68.152344 C 99.234375 68.152344 97.414062 66.472656 97.414062 63.992188 C 97.414062 61.390625 99.351562 59.6875 101.972656 59.6875 C 104.652344 59.6875 106.386719 61.402344 106.386719 63.835938 " fill-opacity="1" fill-rule="nonzero"/><path fill="#5b1429" d="M 108.03125 59.824219 L 109.300781 59.824219 L 109.300781 67.128906 L 113.496094 67.128906 L 113.496094 68.015625 L 108.03125 68.015625 Z M 108.03125 59.824219 " fill-opacity="1" fill-rule="nonzero"/><path fill="#5b1429" d="M 115.652344 59.824219 L 115.652344 64.671875 C 115.652344 66.507812 116.628906 67.289062 117.9375 67.289062 C 119.394531 67.289062 120.328125 66.484375 120.328125 64.671875 L 120.328125 59.824219 L 121.609375 59.824219 L 121.609375 64.601562 C 121.609375 67.117188 120.023438 68.152344 117.894531 68.152344 C 115.886719 68.152344 114.371094 67.191406 114.371094 64.648438 L 114.371094 59.824219 Z M 115.652344 59.824219 " fill-opacity="1" fill-rule="nonzero"/><path fill="#5b1429" d="M 125.675781 60.722656 L 122.6875 60.722656 L 122.6875 59.824219 L 129.957031 59.824219 L 129.957031 60.722656 L 126.957031 60.722656 L 126.957031 68.015625 L 125.675781 68.015625 Z M 125.675781 60.722656 " fill-opacity="1" fill-rule="nonzero"/><path fill="#5b1429" d="M 132.320312 68.015625 L 131.050781 68.015625 L 131.050781 59.824219 L 132.320312 59.824219 Z M 132.320312 68.015625 " fill-opacity="1" fill-rule="nonzero"/><path fill="#5b1429" d="M 135.304688 63.96875 C 135.304688 65.71875 136.441406 67.289062 138.4375 67.289062 C 140.449219 67.289062 141.585938 65.742188 141.585938 63.882812 C 141.585938 62.253906 140.566406 60.550781 138.453125 60.550781 C 136.355469 60.550781 135.304688 62.167969 135.304688 63.96875 M 142.925781 63.835938 C 142.925781 66.65625 140.871094 68.152344 138.363281 68.152344 C 135.773438 68.152344 133.949219 66.472656 133.949219 63.992188 C 133.949219 61.390625 135.886719 59.6875 138.511719 59.6875 C 141.191406 59.6875 142.925781 61.402344 142.925781 63.835938 " fill-opacity="1" fill-rule="nonzero"/><path fill="#5b1429" d="M 144.570312 68.015625 L 144.570312 59.820312 L 145.953125 59.820312 L 149.101562 63.96875 C 149.832031 64.929688 150.398438 65.792969 150.863281 66.632812 L 150.894531 66.617188 C 150.777344 65.523438 150.746094 64.527344 150.746094 63.25 L 150.746094 59.820312 L 151.941406 59.820312 L 151.941406 68.015625 L 150.660156 68.015625 L 147.542969 63.859375 C 146.859375 62.945312 146.203125 62.011719 145.707031 61.125 L 145.664062 61.136719 C 145.738281 62.167969 145.765625 63.152344 145.765625 64.515625 L 145.765625 68.015625 Z M 144.570312 68.015625 " fill-opacity="1" fill-rule="nonzero"/><path fill="#5b1429" d="M 153.980469 66.726562 C 154.550781 67.019531 155.378906 67.261719 156.253906 67.261719 C 157.550781 67.261719 158.308594 66.691406 158.308594 65.863281 C 158.308594 65.097656 157.785156 64.660156 156.457031 64.234375 C 154.855469 63.761719 153.867188 63.070312 153.867188 61.914062 C 153.867188 60.636719 155.132812 59.6875 157.042969 59.6875 C 158.046875 59.6875 158.773438 59.882812 159.210938 60.089844 L 158.863281 60.953125 C 158.542969 60.808594 157.886719 60.5625 156.996094 60.5625 C 155.65625 60.5625 155.148438 61.234375 155.148438 61.792969 C 155.148438 62.558594 155.746094 62.933594 157.101562 63.371094 C 158.761719 63.90625 159.605469 64.574219 159.605469 65.78125 C 159.605469 67.042969 158.484375 68.152344 156.167969 68.152344 C 155.21875 68.152344 154.1875 67.90625 153.660156 67.617188 Z M 153.980469 66.726562 " fill-opacity="1" fill-rule="nonzero"/></svg>